<svg xmlns="http://www.w3.org/2000/svg" viewBox="0 0 512 512" width="512" height="512">
  <defs>
    <linearGradient id="salencyMark" x1="0.5" y1="0" x2="0.5" y2="1">
      <stop offset="0%" stop-color="#FF9B5E"/>
      <stop offset="50%" stop-color="#FF7B3D"/>
      <stop offset="100%" stop-color="#D85F2E"/>
    </linearGradient>
  </defs>
  <rect width="512" height="512" rx="96" fill="#0E0C11"/>
  <g transform="translate(90 77) scale(0.46)">
    <path d="M351.142 0.555408C354.591 0.0156279 358.939 0.38984 362.441 0.177813C382.681 -1.04577 398.318 4.1852 416.712 11.5702L445.178 22.9373L565.667 71.3486L664.5 111.333C684.723 119.713 712.319 124.772 718.59 148.582C721.331 158.973 720.693 170.123 720.68 180.776L720.684 213.839L720.706 312.549C720.701 320.709 721.668 361.961 719.658 367.119C719.367 367.871 719.557 367.645 718.734 367.974C716.905 368.706 714.646 368.341 712.826 367.724C707.961 366.072 703.211 363.955 698.384 362.172L647.829 343.067L543.877 303.849L434.262 262.704C420.868 257.628 403.681 252.447 390.793 246.7C377.66 252.262 363.176 257.597 349.767 262.545C339.001 266.518 329.991 270.569 318.808 273.639L320.3 274.485C326.821 278.194 338.365 281.856 345.618 284.732L400.666 306.057C405.936 308.042 411.337 309.755 416.586 311.751L637.509 396.294C646.824 399.964 656.27 403.626 665.636 407.288C677.866 412.069 691.813 415.655 702.674 423.173C723.839 437.829 720.777 459.437 720.744 481.793L720.693 536.388L720.739 591.907C720.76 610.103 723.26 629.236 711.606 644.365C701.125 657.961 685.724 661.361 670.666 667.599C662.714 670.889 655.139 673.922 647.162 677.018L576.291 704.923L472.233 746.104L431.049 762.183C421.632 765.858 411.603 770.373 402.127 773.617C396.426 775.568 385.637 777.177 379.59 777.933C357.568 779.048 334.299 778.731 313.768 769.765C309.715 767.995 305.622 766.179 301.496 764.603L244.511 742.197C240.268 740.495 236.108 738.489 231.907 736.816L81.1418 677.149C72.8947 673.884 64.8769 670.678 56.6311 667.346C46.7013 663.329 29.3731 657.348 20.6502 651.87C12.8524 646.975 2.17891 632.78 1.10633 623.103C0.0730157 613.786 0.278661 603.607 0.28584 593.939L0.334404 547.851L0.377472 458.686C0.376205 451.417 -0.413451 407.102 1.58096 404.382C6.55792 402.106 32.0242 413.78 38.7439 416.314L118.294 446.488L216.662 483.525C247.209 495.022 277.694 506.556 308.179 518.218C315.285 520.938 323.496 524.908 330.721 526.834L331.301 526.986C335.252 525.972 341.367 523.328 345.396 521.774C354.139 518.488 362.843 515.092 371.499 511.587C378.159 508.913 384.493 507.177 391.177 504.483C384.683 501.15 373.087 497.323 365.836 494.599L328.517 480.209C324.162 478.566 319.688 477.173 315.361 475.466L99.263 392.337C86.813 387.585 72.85 383.002 60.4903 377.575C45.9881 370.383 28.3365 366.152 15.343 356.548C-3.48721 342.63 0.291327 315.417 0.342845 294.95L0.379586 242.862L0.385919 194.26C0.38972 183.182 -0.131792 170.866 1.59828 160.011C3.85788 145.837 15.6952 133.448 28.222 127.378C42.2712 120.57 56.9652 115.53 71.3374 109.632C102.538 96.551 133.864 83.7736 165.313 71.3021L264.445 30.6593C278.845 24.5376 293.338 18.6364 307.918 12.9581C323.44 6.83679 334.031 2.04086 351.142 0.555408ZM708.595 619.889C709.211 616.126 708.928 603.565 708.92 599.307L708.865 557.979L708.949 491.203C708.966 479.483 709.283 467.762 708.666 455.949C707.78 438.881 694.174 430.083 679.601 424.998C659.399 417.944 639.489 409.582 619.596 401.865C607.126 397.122 594.614 392.484 582.059 387.965C575.028 385.385 568.162 381.963 561.068 379.7C552.897 377.094 545.41 373.487 537.42 370.462L363.797 304.144L142.956 220.436L74.6202 193.838C57.7451 187.323 38.4922 181.473 23.1758 171.826C18.8948 169.13 17.5536 164.078 12.341 162.792C11.4242 173.405 11.8279 187.489 11.8317 198.397L11.8634 257.781L11.8427 301.863C11.8406 309.261 11.5121 321.397 12.4943 328.382C13.2485 334.124 15.6555 339.522 19.4222 343.92C23.4431 348.644 28.4458 351.18 34.0385 353.649C56.2866 363.469 79.2453 371.819 101.899 380.595L230.81 429.88L478.124 524.802L632.095 583.279C648.902 589.745 666.012 595.962 682.743 602.69C688.781 605.119 695.272 607.822 700.462 611.813C702.822 613.634 706.247 618.846 708.595 619.889ZM339.406 765.14C357.888 767.809 378.374 767.885 396.312 762.741C409.749 758.885 424.9 751.814 438.063 746.678L540.326 706.102L637.099 668.098L671.7 654.388C680.336 650.92 688.245 648.28 696.057 643.035C707.357 635.449 695.677 621.131 687.333 617.249C676.472 612.198 665.125 608.485 654.011 604.359L619.528 591.173L522.316 554.3L448.379 525.833C441.981 523.333 411.282 510.966 407.008 511.101C386.076 518.767 366.863 526.669 346.249 534.614L153.798 608.494L100.948 628.991L76.1023 638.427C62.8513 643.398 55.9555 646.642 41.3907 648.415C57.2265 655.33 74.5201 661.817 90.6401 668.148L153.895 693.422C164.951 697.786 177.204 702.195 188.065 706.613L285.94 745.711C302.998 752.473 321.634 761.254 339.406 765.14ZM354.124 12.3879C346.994 12.9467 337.536 14.3033 330.905 16.7399C309.791 24.4971 289.037 33.4415 268.315 42.1041L196.103 71.5378L73.8883 121.496C61.8957 126.473 49.5403 131.157 37.6008 136.11C34.9172 137.223 23.9557 142.836 22.7886 144.891C13.6678 160.954 48.2633 171.107 55.953 173.963L75.6573 181.481L159.988 213.797L261.749 252.849C271.259 256.448 280.693 260.502 290.3 263.757C293.829 264.952 300.617 268.577 303.955 267.346C311.431 264.589 320.61 261.532 327.867 258.407C337.07 254.603 345.572 251.768 354.511 248.204L480.937 199.146L575.835 162.11C590.441 156.374 604.976 150.361 619.688 144.852C623.818 143.307 628.024 141.981 632.124 140.365C644.265 135.238 656.574 130.8 669.293 127.383C669.445 127.15 669.597 126.917 669.749 126.684C668.36 124.462 666.532 124.66 664.192 123.797C650.899 118.892 637.855 113.072 624.726 107.723L570.514 85.8221C565.544 83.7863 560.295 82.216 555.236 80.151L471.288 45.9248C467.512 44.4288 462.449 43.1279 459.016 41.5031C443.928 34.3605 427.231 28.7938 411.996 22.4059C394.391 15.0264 380.063 11.0706 360.794 12.1446C358.671 12.2629 356.269 12.126 354.124 12.3879ZM240.6 562.76L292.789 542.491C298.715 540.244 307.903 535.974 314.05 534.681L314.359 534.141C310.921 530.728 271.085 516.879 264.519 514.455L218.391 497.091L60.688 437.567C51.5461 434.091 42.6381 429.864 33.3582 426.654C26.0882 424.136 19.3322 420.842 11.9014 418.709L11.8499 562.211L11.8022 600.325C11.7781 610.289 9.86689 624.142 17.595 631.141C31.9207 644.112 53.9573 633.886 69.0613 628.349C78.4582 624.907 87.0085 621.769 96.0727 618.259L159.44 593.766L220.462 570.105C227.032 567.537 234.235 565.59 240.6 562.76ZM407.781 239.7L497.355 273.466C502.384 275.316 507.418 277.588 512.32 279.353C540.647 290.659 570.324 301.035 598.917 311.916L657.009 333.74L681.924 343.449C684.521 344.488 688.131 346.326 690.466 347.16C696.399 349.278 702.303 351.323 708.236 353.497C709.275 349.62 708.882 322.325 708.878 317.042L708.873 232.565L708.852 188.758C708.894 177.015 710.6 156.717 704.6 146.762C701.644 141.88 696.809 138.432 691.231 137.23C687.975 136.501 683.891 136.538 680.568 136.965C664.011 138.884 627.703 154.749 611.142 161.261L475.721 213.646C459.384 220.016 442.839 227.171 426.264 233.119C420.276 235.268 413.871 238.068 407.781 239.7Z" fill="url(#salencyMark)"/>
  </g>
</svg>
